<svg xmlns="http://www.w3.org/2000/svg" width="626" height="352" fill="none" viewBox="0 0 626 352">
  <path fill="#000" d="M15.707 42.227h4.773l2.827 3.665 2.017 2.386 4.844 6.222h-5.114l-3.295-4.176-1.407-1.989-4.645-6.108Zm15.157-4.772c0 3.134-.588 5.819-1.762 8.053-1.165 2.226-2.755 3.93-4.773 5.114-2.007 1.184-4.285 1.776-6.832 1.776-2.547 0-4.83-.592-6.846-1.776-2.008-1.193-3.599-2.902-4.773-5.128-1.165-2.234-1.747-4.914-1.747-8.04 0-3.134.582-5.814 1.747-8.04 1.174-2.234 2.765-3.943 4.773-5.127 2.017-1.184 4.299-1.776 6.846-1.776 2.547 0 4.825.592 6.832 1.776 2.018 1.184 3.608 2.893 4.773 5.128 1.174 2.225 1.762 4.905 1.762 8.04Zm-5.299 0c0-2.207-.345-4.068-1.037-5.583-.681-1.524-1.628-2.675-2.84-3.451-1.213-.787-2.61-1.18-4.19-1.18-1.582 0-2.98.393-4.191 1.18-1.212.776-2.164 1.927-2.855 3.451-.682 1.515-1.023 3.376-1.023 5.583 0 2.206.34 4.072 1.023 5.596.691 1.515 1.643 2.666 2.855 3.452 1.212.776 2.609 1.165 4.19 1.165 1.582 0 2.978-.389 4.19-1.165 1.213-.786 2.16-1.937 2.841-3.452.692-1.525 1.037-3.39 1.037-5.596Zm23.999 5.369V30.182h5.142V52H49.72v-3.878h-.227c-.492 1.222-1.302 2.22-2.43 2.997-1.117.777-2.494 1.165-4.133 1.165-1.43 0-2.694-.317-3.792-.952-1.09-.644-1.941-1.576-2.557-2.798-.616-1.231-.923-2.718-.923-4.46V30.182H40.8v13.096c0 1.383.379 2.482 1.136 3.296.758.814 1.752 1.221 2.983 1.221.758 0 1.492-.184 2.202-.553.71-.37 1.292-.92 1.747-1.648.464-.739.696-1.662.696-2.77Zm16.708 9.616c-1.383 0-2.628-.246-3.736-.738-1.098-.502-1.97-1.24-2.613-2.216-.635-.976-.952-2.178-.952-3.608 0-1.231.227-2.25.682-3.054a5.276 5.276 0 0 1 1.86-1.932 9.387 9.387 0 0 1 2.657-1.094 21.61 21.61 0 0 1 3.082-.554c1.279-.132 2.316-.25 3.11-.355.796-.113 1.374-.284 1.734-.511.37-.237.554-.602.554-1.094V37.2c0-1.07-.317-1.899-.952-2.486-.634-.587-1.548-.88-2.741-.88-1.26 0-2.259.274-2.997.823-.73.55-1.222 1.198-1.478 1.946l-4.8-.681c.378-1.326 1.003-2.434 1.874-3.324.871-.9 1.937-1.572 3.196-2.018 1.26-.454 2.652-.681 4.176-.681 1.051 0 2.098.123 3.14.369a8.837 8.837 0 0 1 2.855 1.222c.861.558 1.553 1.32 2.073 2.287.53.965.796 2.173.796 3.622V52h-4.943v-2.997h-.17a6.277 6.277 0 0 1-1.322 1.704c-.558.521-1.264.943-2.116 1.265-.843.312-1.833.468-2.969.468Zm1.335-3.778c1.032 0 1.927-.204 2.685-.61.757-.417 1.34-.967 1.747-1.649a4.198 4.198 0 0 0 .625-2.23v-2.57c-.16.132-.436.255-.824.369-.379.113-.805.213-1.278.298-.474.085-.942.16-1.406.227l-1.208.17a8.978 8.978 0 0 0-2.06.512c-.606.237-1.084.568-1.434.994-.35.417-.526.957-.526 1.62 0 .947.346 1.662 1.037 2.145.691.482 1.572.724 2.642.724Zm3.14-25.568 5.766 4.673h-4.275l-3.068-2.614-3.111 2.614h-4.247l5.71-4.673h3.224ZM60.15 19.67l3.14 5.256h-3.211l-4.432-5.255h4.503Zm27.954 19.546V52h-5.142V30.182h4.915v3.707h.256a6.236 6.236 0 0 1 2.4-2.912c1.108-.72 2.477-1.08 4.105-1.08 1.506 0 2.818.323 3.935.967 1.127.644 1.998 1.576 2.614 2.798.625 1.221.933 2.703.923 4.446V52h-5.142V38.903c0-1.458-.379-2.599-1.136-3.423-.748-.824-1.785-1.236-3.111-1.236-.9 0-1.7.2-2.4.597-.692.388-1.236.952-1.634 1.69-.388.739-.583 1.634-.583 2.685Zm45.192-8.31c-.132-1.24-.691-2.206-1.676-2.897-.975-.692-2.244-1.037-3.807-1.037-1.098 0-2.041.165-2.826.497-.786.331-1.388.781-1.804 1.35a3.283 3.283 0 0 0-.64 1.945c0 .606.138 1.132.412 1.577a3.76 3.76 0 0 0 1.151 1.136 8.116 8.116 0 0 0 1.605.767 17.23 17.23 0 0 0 1.776.526l2.727.682c1.098.255 2.154.601 3.167 1.037 1.023.435 1.937.985 2.742 1.647a7.323 7.323 0 0 1 1.932 2.4c.473.938.71 2.037.71 3.296 0 1.705-.436 3.206-1.307 4.503-.871 1.288-2.131 2.297-3.778 3.026-1.639.72-3.622 1.08-5.952 1.08-2.263 0-4.228-.351-5.895-1.052-1.657-.7-2.954-1.723-3.892-3.068-.928-1.345-1.43-2.983-1.506-4.915h5.185c.076 1.014.388 1.856.938 2.529.549.672 1.264 1.174 2.144 1.505.891.332 1.885.498 2.983.498 1.146 0 2.15-.171 3.012-.512.871-.35 1.553-.833 2.045-1.449.493-.625.744-1.354.753-2.187-.009-.758-.232-1.383-.668-1.875-.435-.502-1.046-.919-1.832-1.25-.776-.341-1.686-.644-2.727-.91l-3.31-.852c-2.396-.615-4.29-1.548-5.682-2.798-1.382-1.26-2.074-2.93-2.074-5.014 0-1.714.464-3.215 1.392-4.503.938-1.288 2.212-2.287 3.821-2.997 1.61-.72 3.433-1.08 5.469-1.08 2.065 0 3.873.36 5.426 1.08 1.563.71 2.789 1.7 3.679 2.969.89 1.26 1.35 2.708 1.378 4.346h-5.071Zm15.082 8.31V52h-5.142V22.91h5.028v10.98h.256c.511-1.232 1.302-2.203 2.372-2.913 1.08-.72 2.453-1.08 4.119-1.08 1.516 0 2.837.318 3.963.952 1.127.635 1.999 1.563 2.614 2.784.625 1.222.938 2.714.938 4.475V52h-5.142V38.903c0-1.467-.379-2.608-1.137-3.423-.748-.824-1.799-1.236-3.153-1.236-.909 0-1.724.2-2.443.597a4.178 4.178 0 0 0-1.677 1.69c-.397.739-.596 1.634-.596 2.685Zm28.906 13.21c-2.131 0-3.977-.469-5.54-1.406-1.562-.938-2.774-2.25-3.636-3.935-.852-1.685-1.278-3.655-1.278-5.909s.426-4.228 1.278-5.923c.862-1.695 2.074-3.011 3.636-3.949 1.563-.938 3.409-1.406 5.54-1.406 2.131 0 3.977.468 5.54 1.406 1.562.938 2.77 2.254 3.622 3.949.862 1.695 1.293 3.67 1.293 5.923 0 2.254-.431 4.224-1.293 5.91-.852 1.685-2.06 2.996-3.622 3.934-1.563.937-3.409 1.406-5.54 1.406Zm.028-4.12c1.156 0 2.122-.316 2.898-.95.777-.645 1.354-1.507 1.733-2.586.388-1.08.583-2.282.583-3.608 0-1.335-.195-2.543-.583-3.622-.379-1.09-.956-1.956-1.733-2.6-.776-.644-1.742-.966-2.898-.966-1.183 0-2.168.322-2.954.966-.777.644-1.359 1.51-1.747 2.6-.379 1.08-.568 2.287-.568 3.622 0 1.326.189 2.528.568 3.608.388 1.08.97 1.941 1.747 2.585.786.635 1.771.952 2.954.952ZM192.103 52V30.182h4.986v3.636h.227c.398-1.26 1.08-2.23 2.046-2.912.975-.691 2.088-1.037 3.338-1.037.284 0 .601.015.951.043.36.019.658.052.895.1v4.73c-.218-.076-.563-.143-1.037-.2a9.54 9.54 0 0 0-1.349-.099c-.938 0-1.781.204-2.529.611a4.473 4.473 0 0 0-1.747 1.662c-.426.71-.639 1.53-.639 2.457V52h-5.142Zm27.926-21.818v3.977h-12.542v-3.977h12.542Zm-9.446-5.227h5.142v20.483c0 .69.104 1.221.313 1.59.217.36.502.607.852.739.35.133.739.199 1.165.199.322 0 .615-.024.88-.071a7.63 7.63 0 0 0 .625-.128l.867 4.02a11.52 11.52 0 0 1-1.179.312c-.502.114-1.118.18-1.847.2-1.288.037-2.448-.157-3.48-.583a5.413 5.413 0 0 1-2.457-2.017c-.597-.91-.89-2.046-.881-3.41V24.955ZM234.479 52V22.91h5.27v13.366h.355l11.349-13.367h6.435l-11.25 13.054L257.987 52h-6.335l-8.679-12.472-3.224 3.807V52h-5.27Zm33.121.44c-1.382 0-2.628-.246-3.736-.738-1.098-.502-1.969-1.24-2.613-2.216-.635-.976-.952-2.178-.952-3.608 0-1.231.227-2.25.682-3.054a5.273 5.273 0 0 1 1.861-1.932 9.384 9.384 0 0 1 2.656-1.094 21.61 21.61 0 0 1 3.082-.554 114.96 114.96 0 0 0 3.111-.355c.796-.113 1.373-.284 1.733-.511.369-.237.554-.602.554-1.094V37.2c0-1.07-.317-1.899-.952-2.486-.634-.587-1.548-.88-2.741-.88-1.26 0-2.259.274-2.997.823-.73.55-1.222 1.198-1.478 1.946l-4.801-.681c.379-1.326 1.004-2.434 1.875-3.324.871-.9 1.937-1.572 3.196-2.018 1.26-.454 2.652-.681 4.176-.681 1.052 0 2.098.123 3.14.369a8.844 8.844 0 0 1 2.855 1.222c.861.558 1.553 1.32 2.074 2.287.53.965.795 2.173.795 3.622V52h-4.943v-2.997h-.171a6.251 6.251 0 0 1-1.321 1.704c-.558.521-1.264.943-2.116 1.265-.843.312-1.832.468-2.969.468Zm1.335-3.778c1.033 0 1.927-.204 2.685-.61.758-.417 1.34-.967 1.747-1.649a4.194 4.194 0 0 0 .625-2.23v-2.57c-.161.132-.435.255-.824.369-.378.113-.805.213-1.278.298-.474.085-.942.16-1.406.227l-1.208.17a8.972 8.972 0 0 0-2.059.512c-.606.237-1.085.568-1.435.994-.35.417-.526.957-.526 1.62 0 .947.346 1.662 1.037 2.145.692.482 1.572.724 2.642.724Zm20.043-3.509-.014-6.207h.824l7.841-8.764h6.008l-9.645 10.738h-1.065l-3.949 4.233ZM284.29 52V22.91h5.143V52h-5.143Zm13.694 0-7.103-9.929 3.466-3.622L304.134 52h-6.15Zm9.08 0V30.182h5.142V52h-5.142Zm2.585-24.915a3 3 0 0 1-2.102-.81c-.587-.549-.881-1.207-.881-1.974 0-.776.294-1.434.881-1.974a2.971 2.971 0 0 1 2.102-.824c.824 0 1.525.274 2.102.824.588.54.881 1.198.881 1.974 0 .767-.293 1.425-.881 1.975-.577.54-1.278.81-2.102.81Zm16.715.242v-4.418h23.211v4.418h-8.992V52h-5.227V27.327h-8.992Zm38.395 15.497V30.182h5.142V52h-4.986v-3.878h-.227c-.492 1.222-1.302 2.22-2.429 2.997-1.117.777-2.495 1.165-4.133 1.165-1.43 0-2.694-.317-3.793-.952-1.089-.644-1.941-1.576-2.557-2.798-.615-1.231-.923-2.718-.923-4.46V30.182h5.142v13.096c0 1.383.379 2.482 1.136 3.296.758.814 1.752 1.221 2.983 1.221.758 0 1.492-.184 2.202-.553.71-.37 1.293-.92 1.747-1.648.464-.739.696-1.662.696-2.77Zm-6.321-15.511 3.182-6.492h5.028l-4.36 6.491h-3.85ZM375.189 52V30.182h5.142V52h-5.142Zm2.585-24.915a3 3 0 0 1-2.102-.81c-.587-.549-.881-1.207-.881-1.974 0-.776.294-1.434.881-1.974a2.971 2.971 0 0 1 2.102-.824c.824 0 1.525.274 2.102.824.588.54.881 1.198.881 1.974 0 .767-.293 1.425-.881 1.975-.577.54-1.278.81-2.102.81ZM395.768 52V22.91h5.27v12.314h13.48V22.91h5.284V52h-5.284V39.642h-13.48V52h-5.27Zm39.055.426c-2.131 0-3.977-.469-5.54-1.406-1.562-.938-2.774-2.25-3.636-3.935-.852-1.685-1.278-3.655-1.278-5.909s.426-4.228 1.278-5.923c.862-1.695 2.074-3.011 3.636-3.949 1.563-.938 3.409-1.406 5.54-1.406 2.131 0 3.977.468 5.54 1.406 1.562.938 2.77 2.254 3.622 3.949.862 1.695 1.293 3.67 1.293 5.923 0 2.254-.431 4.224-1.293 5.91-.852 1.685-2.06 2.996-3.622 3.934-1.563.937-3.409 1.406-5.54 1.406Zm.029-4.12c1.155 0 2.121-.316 2.897-.95.777-.645 1.354-1.507 1.733-2.586.389-1.08.583-2.282.583-3.608 0-1.335-.194-2.543-.583-3.622-.379-1.09-.956-1.956-1.733-2.6-.776-.644-1.742-.966-2.897-.966-1.184 0-2.169.322-2.955.966-.776.644-1.359 1.51-1.747 2.6-.379 1.08-.568 2.287-.568 3.622 0 1.326.189 2.528.568 3.608.388 1.08.971 1.941 1.747 2.585.786.635 1.771.952 2.955.952Zm2.855-20.738-2.884-3.636-2.883 3.636h-4.503v-.199l5.383-6.136h4.02l5.37 6.136v.2h-4.503Zm-2.87 32.287c-.824 0-1.529-.274-2.116-.824-.578-.549-.867-1.207-.867-1.974 0-.767.289-1.425.867-1.975a2.97 2.97 0 0 1 2.102-.824c.824 0 1.525.275 2.102.824.588.55.881 1.208.881 1.975 0 .767-.293 1.425-.881 1.974-.577.55-1.273.824-2.088.824Zm14.805.327v-30h5.057v3.608h.298c.265-.53.639-1.094 1.122-1.69.483-.607 1.137-1.123 1.961-1.549.823-.435 1.875-.653 3.153-.653 1.686 0 3.205.43 4.56 1.292 1.363.853 2.443 2.117 3.238 3.793.805 1.667 1.208 3.712 1.208 6.136 0 2.396-.393 4.432-1.179 6.108-.786 1.676-1.856 2.955-3.211 3.836-1.354.88-2.888 1.32-4.602 1.32-1.25 0-2.287-.208-3.111-.625-.823-.416-1.486-.918-1.988-1.505-.493-.597-.876-1.16-1.151-1.69h-.213v11.619h-5.142Zm5.043-19.091c0 1.41.199 2.647.596 3.707.407 1.06.99 1.89 1.747 2.486.767.587 1.695.88 2.784.88 1.137 0 2.089-.302 2.856-.908.767-.616 1.344-1.454 1.733-2.514.397-1.07.596-2.287.596-3.651 0-1.354-.194-2.557-.582-3.608-.388-1.051-.966-1.875-1.733-2.472-.767-.596-1.724-.895-2.87-.895-1.098 0-2.031.29-2.798.867-.767.578-1.349 1.387-1.747 2.429-.388 1.042-.582 2.268-.582 3.679ZM484.791 52V22.91H495.7c2.235 0 4.11.416 5.625 1.25 1.525.832 2.675 1.978 3.452 3.437.786 1.448 1.179 3.096 1.179 4.943 0 1.865-.393 3.523-1.179 4.971-.786 1.45-1.946 2.59-3.48 3.424-1.534.823-3.423 1.235-5.668 1.235h-7.23v-4.332h6.52c1.307 0 2.377-.227 3.21-.682.834-.454 1.449-1.08 1.847-1.875.407-.795.611-1.709.611-2.741s-.204-1.941-.611-2.727c-.398-.787-1.018-1.397-1.861-1.833-.833-.445-1.908-.668-3.224-.668h-4.83V52h-5.27Zm30.657-12.784V52h-5.142V22.91h5.029v10.98h.255c.512-1.232 1.302-2.203 2.372-2.913 1.08-.72 2.453-1.08 4.12-1.08 1.515 0 2.836.318 3.963.952 1.127.635 1.998 1.563 2.613 2.784.625 1.222.938 2.714.938 4.475V52h-5.142V38.903c0-1.467-.379-2.608-1.137-3.423-.748-.824-1.799-1.236-3.153-1.236-.909 0-1.723.2-2.443.597a4.176 4.176 0 0 0-1.676 1.69c-.398.739-.597 1.634-.597 2.685Zm28.906 13.21c-2.13 0-3.977-.469-5.539-1.406-1.563-.938-2.775-2.25-3.637-3.935-.852-1.685-1.278-3.655-1.278-5.909s.426-4.228 1.278-5.923c.862-1.695 2.074-3.011 3.637-3.949 1.562-.938 3.409-1.406 5.539-1.406 2.131 0 3.978.468 5.54 1.406 1.563.938 2.77 2.254 3.622 3.949.862 1.695 1.293 3.67 1.293 5.923 0 2.254-.431 4.224-1.293 5.91-.852 1.685-2.059 2.996-3.622 3.934-1.562.937-3.409 1.406-5.54 1.406Zm.029-4.12c1.155 0 2.121-.316 2.898-.95.776-.645 1.354-1.507 1.732-2.586.389-1.08.583-2.282.583-3.608 0-1.335-.194-2.543-.583-3.622-.378-1.09-.956-1.956-1.732-2.6-.777-.644-1.743-.966-2.898-.966-1.184 0-2.169.322-2.955.966-.776.644-1.359 1.51-1.747 2.6-.379 1.08-.568 2.287-.568 3.622 0 1.326.189 2.528.568 3.608.388 1.08.971 1.941 1.747 2.585.786.635 1.771.952 2.955.952Zm-7.401-20.624 5.753-4.673h3.21l5.782 4.673h-4.276l-3.082-2.614-3.097 2.614h-4.29Zm13.225-2.841 3.153-5.242h4.517l-4.389 5.242h-3.281ZM559.173 52V30.182h5.142V52h-5.142Zm2.586-24.915a3 3 0 0 1-2.103-.81c-.587-.549-.88-1.207-.88-1.974 0-.776.293-1.434.88-1.974a2.972 2.972 0 0 1 2.103-.824c.823 0 1.524.274 2.102.824.587.54.88 1.198.88 1.974 0 .767-.293 1.425-.88 1.975-.578.54-1.279.81-2.102.81Zm-531.99 49.64h-5.312c-.151-.872-.43-1.644-.838-2.316a6.227 6.227 0 0 0-1.52-1.733 6.334 6.334 0 0 0-2.073-1.065 8.091 8.091 0 0 0-2.486-.37c-1.582 0-2.983.398-4.205 1.194-1.221.786-2.178 1.94-2.87 3.466-.69 1.515-1.036 3.366-1.036 5.553 0 2.226.346 4.1 1.037 5.626.7 1.515 1.657 2.66 2.87 3.437 1.22.767 2.618 1.15 4.19 1.15a8.48 8.48 0 0 0 2.443-.34 6.69 6.69 0 0 0 2.06-1.037 6.093 6.093 0 0 0 1.548-1.676 6.31 6.31 0 0 0 .88-2.273l5.313.028a11.44 11.44 0 0 1-1.293 3.892 11.472 11.472 0 0 1-2.57 3.21c-1.061.92-2.302 1.639-3.722 2.16-1.42.511-2.997.767-4.73.767-2.557 0-4.84-.592-6.847-1.776-2.008-1.184-3.59-2.893-4.744-5.128-1.156-2.234-1.733-4.915-1.733-8.04 0-3.134.582-5.814 1.747-8.04 1.165-2.234 2.75-3.943 4.758-5.127 2.008-1.184 4.28-1.776 6.819-1.776 1.619 0 3.125.228 4.517.682a11.57 11.57 0 0 1 3.721 2.003 10.659 10.659 0 0 1 2.685 3.21c.71 1.26 1.174 2.7 1.392 4.318Zm14.117 19.701c-2.131 0-3.978-.469-5.54-1.406-1.563-.938-2.775-2.25-3.636-3.935-.853-1.685-1.279-3.655-1.279-5.909s.426-4.228 1.279-5.923c.861-1.695 2.073-3.011 3.636-3.949 1.562-.938 3.409-1.406 5.54-1.406 2.13 0 3.977.469 5.54 1.406 1.562.938 2.77 2.254 3.622 3.949.861 1.695 1.292 3.67 1.292 5.923 0 2.254-.43 4.224-1.292 5.91-.853 1.685-2.06 2.996-3.623 3.934-1.562.937-3.409 1.406-5.54 1.406Zm.028-4.12c1.155 0 2.121-.316 2.898-.95.776-.645 1.354-1.507 1.733-2.586.388-1.08.582-2.282.582-3.608 0-1.335-.194-2.543-.582-3.622-.379-1.09-.957-1.956-1.733-2.6-.777-.644-1.743-.966-2.898-.966-1.184 0-2.169.322-2.955.966-.776.644-1.358 1.51-1.747 2.6-.378 1.08-.568 2.287-.568 3.622 0 1.326.19 2.528.568 3.608.389 1.08.971 1.941 1.747 2.585.786.635 1.771.952 2.955.952Zm-2.003-20.993 3.182-6.492h5.028l-4.36 6.492h-3.85ZM68.854 96V66.91h5.27v24.672h12.812V96H68.854Zm44.36-22.94h3.31c0 1.572-.227 2.893-.682 3.963-.445 1.06-1.207 1.86-2.287 2.4-1.079.54-2.571.81-4.474.81v-2.585c1.269 0 2.192-.161 2.77-.483.578-.332.947-.838 1.108-1.52.161-.682.246-1.544.255-2.585Zm-7.94 13.764V74.182h5.156V96h-5v-3.878h-.227c-.492 1.222-1.302 2.22-2.429 2.997-1.117.777-2.495 1.165-4.133 1.165-1.43 0-2.695-.317-3.793-.952-1.089-.644-1.941-1.576-2.557-2.798-.615-1.231-.923-2.718-.923-4.46V74.182h5.142v13.096c.01 1.383.388 2.481 1.136 3.296.758.814 1.752 1.222 2.983 1.222.758 0 1.492-.185 2.202-.555.72-.369 1.307-.918 1.761-1.647.464-.739.692-1.662.682-2.77Zm18.338-3.608V96h-5.142V74.182h4.915v3.707h.256a6.238 6.238 0 0 1 2.4-2.912c1.108-.72 2.477-1.08 4.105-1.08 1.506 0 2.818.323 3.935.967 1.127.644 1.998 1.576 2.614 2.798.625 1.221.932 2.703.923 4.446V96h-5.142V82.903c0-1.458-.379-2.599-1.137-3.423-.748-.824-1.785-1.236-3.11-1.236-.9 0-1.7.2-2.401.597a4.133 4.133 0 0 0-1.633 1.69c-.389.739-.583 1.634-.583 2.685Zm28.722 21.42c-1.847 0-3.433-.251-4.759-.752-1.325-.493-2.391-1.156-3.196-1.989-.805-.833-1.363-1.757-1.676-2.77l4.631-1.122c.208.426.511.847.909 1.264.398.426.933.777 1.605 1.051.682.284 1.539.426 2.571.426 1.458 0 2.666-.355 3.622-1.065.957-.7 1.435-1.856 1.435-3.466V92.08h-.256c-.265.53-.653 1.074-1.165 1.633-.501.559-1.169 1.028-2.002 1.406-.824.38-1.861.569-3.111.569-1.676 0-3.196-.394-4.56-1.18-1.354-.795-2.434-1.979-3.239-3.55-.795-1.582-1.193-3.561-1.193-5.938 0-2.396.398-4.418 1.193-6.066.805-1.657 1.89-2.911 3.253-3.764 1.364-.861 2.884-1.292 4.56-1.292 1.278 0 2.33.218 3.153.653.834.426 1.497.942 1.989 1.548.492.597.866 1.16 1.122 1.69h.284v-3.607h5.071v22.173c0 1.866-.445 3.41-1.335 4.631-.89 1.221-2.107 2.135-3.651 2.741-1.543.606-3.295.909-5.255.909Zm.042-12.983c1.089 0 2.017-.265 2.785-.795.767-.53 1.349-1.293 1.747-2.287.397-.994.596-2.188.596-3.58 0-1.373-.199-2.575-.596-3.608-.389-1.032-.966-1.832-1.733-2.4-.758-.578-1.691-.867-2.799-.867-1.145 0-2.102.299-2.869.895-.767.597-1.345 1.416-1.733 2.458-.388 1.032-.582 2.206-.582 3.523 0 1.335.194 2.504.582 3.508.398.994.98 1.77 1.747 2.33.777.549 1.729.823 2.855.823Zm50.519-14.929h-5.313c-.151-.87-.43-1.643-.838-2.315a6.226 6.226 0 0 0-1.52-1.733 6.335 6.335 0 0 0-2.073-1.065 8.092 8.092 0 0 0-2.486-.37c-1.582 0-2.983.398-4.205 1.194-1.221.786-2.178 1.94-2.869 3.466-.691 1.515-1.037 3.366-1.037 5.553 0 2.226.346 4.1 1.037 5.626.701 1.515 1.657 2.66 2.869 3.437 1.222.767 2.619 1.15 4.191 1.15.871 0 1.685-.113 2.443-.34a6.685 6.685 0 0 0 2.059-1.037 6.093 6.093 0 0 0 1.549-1.676 6.33 6.33 0 0 0 .88-2.273l5.313.028a11.44 11.44 0 0 1-1.293 3.892 11.46 11.46 0 0 1-2.571 3.21c-1.06.92-2.301 1.639-3.721 2.16-1.421.511-2.997.767-4.73.767-2.557 0-4.839-.592-6.847-1.776-2.008-1.184-3.589-2.893-4.744-5.128-1.156-2.234-1.733-4.915-1.733-8.04 0-3.134.582-5.814 1.747-8.04 1.165-2.234 2.751-3.943 4.758-5.127 2.008-1.184 4.281-1.776 6.819-1.776 1.619 0 3.125.228 4.517.682a11.567 11.567 0 0 1 3.721 2.003 10.664 10.664 0 0 1 2.685 3.21c.71 1.26 1.174 2.7 1.392 4.318Zm9.741 6.492V96h-5.142V66.91h5.028v10.98h.256c.511-1.232 1.302-2.203 2.372-2.913 1.079-.72 2.453-1.08 4.119-1.08 1.515 0 2.836.318 3.963.952 1.127.635 1.998 1.563 2.614 2.784.625 1.222.937 2.714.937 4.475V96h-5.142V82.903c0-1.467-.378-2.609-1.136-3.423-.748-.824-1.799-1.236-3.153-1.236-.91 0-1.724.2-2.444.597a4.176 4.176 0 0 0-1.676 1.69c-.397.739-.596 1.634-.596 2.685Zm33.295 3.608V74.182h5.142V96h-4.986v-3.878h-.227c-.492 1.222-1.302 2.22-2.429 2.997-1.117.777-2.495 1.165-4.133 1.165-1.43 0-2.695-.317-3.793-.952-1.089-.644-1.941-1.576-2.557-2.798-.615-1.231-.923-2.718-.923-4.46V74.182h5.142v13.096c0 1.383.379 2.481 1.136 3.296.758.814 1.752 1.222 2.983 1.222.758 0 1.492-.185 2.202-.555.71-.369 1.293-.918 1.747-1.647.464-.739.696-1.662.696-2.77Zm15.572-3.608V96h-5.142V74.182h4.915v3.707h.255a6.234 6.234 0 0 1 2.401-2.912c1.108-.72 2.476-1.08 4.105-1.08 1.506 0 2.817.323 3.935.967 1.126.644 1.998 1.576 2.613 2.798.625 1.221.933 2.703.924 4.446V96h-5.143V82.903c0-1.458-.378-2.599-1.136-3.423-.748-.824-1.785-1.236-3.111-1.236-.899 0-1.699.2-2.4.597-.692.388-1.236.952-1.634 1.69-.388.739-.582 1.634-.582 2.685Zm54.283-6.492h-5.313c-.152-.87-.431-1.643-.838-2.315a6.226 6.226 0 0 0-1.52-1.733 6.33 6.33 0 0 0-2.074-1.065 8.088 8.088 0 0 0-2.486-.37c-1.581 0-2.983.398-4.204 1.194-1.222.786-2.178 1.94-2.869 3.466-.692 1.515-1.037 3.366-1.037 5.553 0 2.226.345 4.1 1.037 5.626.7 1.515 1.657 2.66 2.869 3.437 1.221.767 2.618 1.15 4.19 1.15a8.46 8.46 0 0 0 2.443-.34 6.69 6.69 0 0 0 2.06-1.037 6.074 6.074 0 0 0 1.548-1.676c.426-.663.72-1.42.881-2.273l5.313.028a11.44 11.44 0 0 1-1.293 3.892 11.495 11.495 0 0 1-2.571 3.21c-1.061.92-2.301 1.639-3.722 2.16-1.42.511-2.997.767-4.73.767-2.557 0-4.839-.592-6.846-1.776-2.008-1.184-3.589-2.893-4.745-5.128-1.155-2.234-1.733-4.915-1.733-8.04 0-3.134.583-5.814 1.747-8.04 1.165-2.234 2.751-3.943 4.759-5.127 2.008-1.184 4.28-1.776 6.818-1.776 1.619 0 3.125.228 4.517.682a11.572 11.572 0 0 1 3.722 2.003 10.647 10.647 0 0 1 2.684 3.21c.711 1.26 1.175 2.7 1.393 4.318Zm14.115 19.702c-2.13 0-3.977-.469-5.539-1.406-1.563-.938-2.775-2.25-3.637-3.935-.852-1.685-1.278-3.655-1.278-5.909s.426-4.228 1.278-5.923c.862-1.695 2.074-3.011 3.637-3.949 1.562-.938 3.409-1.406 5.539-1.406 2.131 0 3.978.469 5.54 1.406 1.563.938 2.77 2.254 3.622 3.949.862 1.695 1.293 3.67 1.293 5.923 0 2.254-.431 4.224-1.293 5.91-.852 1.685-2.059 2.996-3.622 3.934-1.562.937-3.409 1.406-5.54 1.406Zm.029-4.12c1.155 0 2.121-.316 2.897-.95.777-.645 1.355-1.507 1.733-2.586.389-1.08.583-2.282.583-3.608 0-1.335-.194-2.543-.583-3.622-.378-1.09-.956-1.956-1.733-2.6-.776-.644-1.742-.966-2.897-.966-1.184 0-2.169.322-2.955.966-.776.644-1.359 1.51-1.747 2.6-.379 1.08-.568 2.287-.568 3.622 0 1.326.189 2.528.568 3.608.388 1.08.971 1.941 1.747 2.585.786.635 1.771.952 2.955.952ZM374.358 76.2a7.524 7.524 0 0 0-.98-2.06 6.344 6.344 0 0 0-1.477-1.576 5.964 5.964 0 0 0-1.961-.98 8.169 8.169 0 0 0-2.414-.341c-1.563 0-2.955.392-4.177 1.178-1.221.786-2.182 1.942-2.883 3.466-.691 1.516-1.037 3.362-1.037 5.54 0 2.197.346 4.058 1.037 5.582.691 1.525 1.652 2.685 2.883 3.48 1.231.787 2.661 1.18 4.29 1.18 1.477 0 2.756-.285 3.835-.853a6.008 6.008 0 0 0 2.515-2.414c.587-1.052.88-2.283.88-3.694l1.193.185h-7.897v-4.12h11.804v3.495c0 2.49-.531 4.645-1.591 6.463a10.873 10.873 0 0 1-4.375 4.205c-1.856.975-3.987 1.463-6.392 1.463-2.68 0-5.033-.602-7.06-1.804-2.017-1.212-3.594-2.931-4.73-5.156-1.127-2.235-1.69-4.887-1.69-7.955 0-2.349.331-4.446.994-6.293.672-1.846 1.61-3.413 2.813-4.701a11.962 11.962 0 0 1 4.232-2.955c1.62-.682 3.381-1.023 5.285-1.023 1.609 0 3.11.237 4.502.71a11.942 11.942 0 0 1 3.708 1.99 11.07 11.07 0 0 1 2.684 3.067 10.812 10.812 0 0 1 1.378 3.92h-5.369ZM386.205 96V74.182h5.142V96h-5.142Zm2.585-24.915c-.815 0-1.515-.27-2.102-.81-.588-.549-.881-1.207-.881-1.974 0-.776.293-1.434.881-1.974a2.97 2.97 0 0 1 2.102-.824c.824 0 1.524.275 2.102.824.587.54.881 1.198.881 1.974 0 .767-.294 1.425-.881 1.975-.578.54-1.278.81-2.102.81Zm14.123 25.355c-1.383 0-2.628-.246-3.736-.738-1.099-.502-1.97-1.24-2.614-2.216-.634-.976-.951-2.178-.951-3.608 0-1.231.227-2.25.681-3.054a5.28 5.28 0 0 1 1.861-1.932 9.396 9.396 0 0 1 2.656-1.094c.995-.255 2.022-.44 3.083-.554 1.278-.132 2.315-.25 3.111-.355.795-.113 1.373-.284 1.733-.511.369-.237.553-.602.553-1.094V81.2c0-1.07-.317-1.899-.951-2.486-.635-.587-1.549-.88-2.742-.88-1.259 0-2.258.274-2.997.823-.729.55-1.221 1.198-1.477 1.946l-4.801-.681c.379-1.326 1.004-2.434 1.875-3.324.871-.9 1.936-1.572 3.196-2.017 1.259-.455 2.651-.682 4.176-.682 1.051 0 2.097.123 3.139.369a8.835 8.835 0 0 1 2.855 1.222c.862.558 1.553 1.32 2.074 2.287.53.966.796 2.173.796 3.622V96h-4.944v-2.997h-.17a6.29 6.29 0 0 1-1.321 1.704c-.559.521-1.264.943-2.117 1.265-.842.312-1.832.468-2.968.468Zm1.335-3.778c1.032 0 1.927-.204 2.685-.61.757-.418 1.339-.967 1.747-1.649a4.203 4.203 0 0 0 .625-2.23v-2.57c-.161.132-.436.255-.824.369-.379.113-.805.213-1.279.298-.473.085-.942.16-1.406.227-.464.066-.866.123-1.207.17a8.98 8.98 0 0 0-2.06.512c-.606.237-1.084.568-1.435.994-.35.417-.525.957-.525 1.62 0 .947.346 1.661 1.037 2.144.691.484 1.572.725 2.642.725Zm-2.628-21.136-3.111-.072c0-1.685.436-3.006 1.307-3.962.871-.957 1.946-1.435 3.224-1.435.616 0 1.151.104 1.606.312.454.2.871.431 1.25.696.388.266.767.502 1.136.71.369.2.776.299 1.222.299.539 0 .965-.204 1.278-.61.322-.408.488-.929.497-1.563l3.054.127c-.009 1.695-.45 3.012-1.321 3.95-.871.927-1.941 1.396-3.21 1.406-.682.009-1.255-.09-1.719-.299a6.256 6.256 0 0 1-1.221-.71 8.653 8.653 0 0 0-1.037-.696c-.351-.208-.763-.313-1.236-.313a1.52 1.52 0 0 0-1.236.597c-.322.398-.483.919-.483 1.563Zm23.125 11.69V96h-5.142V74.182h4.915v3.707h.255a6.24 6.24 0 0 1 2.401-2.912c1.108-.72 2.476-1.08 4.105-1.08 1.506 0 2.817.323 3.935.967 1.127.644 1.998 1.576 2.613 2.798.625 1.221.933 2.703.924 4.446V96h-5.142V82.903c0-1.458-.379-2.599-1.137-3.423-.748-.824-1.785-1.236-3.11-1.236-.9 0-1.7.2-2.401.597-.691.388-1.236.952-1.634 1.69-.388.739-.582 1.634-.582 2.685Zm46.513-3.878v4.233h-20v-4.233h20Zm12.791-12.429h6.449l8.636 21.08h.341l8.637-21.08h6.448V96h-5.056V76.014h-.27l-8.04 19.9h-3.779l-8.039-19.942h-.27V96h-5.057V66.91ZM526.35 96.44c-1.382 0-2.628-.246-3.736-.738-1.098-.502-1.969-1.24-2.613-2.216-.635-.976-.952-2.178-.952-3.608 0-1.231.227-2.25.682-3.054a5.273 5.273 0 0 1 1.861-1.932 9.384 9.384 0 0 1 2.656-1.094 21.61 21.61 0 0 1 3.082-.554 114.96 114.96 0 0 0 3.111-.355c.796-.113 1.373-.284 1.733-.511.369-.237.554-.602.554-1.094V81.2c0-1.07-.317-1.899-.952-2.486-.634-.587-1.548-.88-2.741-.88-1.26 0-2.259.274-2.997.823-.73.55-1.222 1.198-1.478 1.946l-4.801-.681c.379-1.326 1.004-2.434 1.875-3.324.871-.9 1.937-1.572 3.196-2.017 1.26-.455 2.652-.682 4.176-.682 1.052 0 2.098.123 3.14.369a8.844 8.844 0 0 1 2.855 1.222c.861.558 1.553 1.32 2.074 2.287.53.966.795 2.173.795 3.622V96h-4.943v-2.997h-.171a6.251 6.251 0 0 1-1.321 1.704c-.558.521-1.264.943-2.116 1.265-.843.312-1.832.468-2.969.468Zm1.335-3.778c1.033 0 1.927-.204 2.685-.61.758-.418 1.34-.967 1.747-1.649a4.194 4.194 0 0 0 .625-2.23v-2.57c-.161.132-.435.255-.824.369-.378.113-.805.213-1.278.298-.474.085-.942.16-1.406.227l-1.208.17a8.972 8.972 0 0 0-2.059.512c-.606.237-1.085.568-1.435.994-.35.417-.526.957-.526 1.62 0 .947.346 1.661 1.037 2.144.692.484 1.572.725 2.642.725Zm-.326-21.35-4.361-6.491h5.042l3.168 6.492h-3.849Zm29.588 15.512V74.182h5.142V96h-4.986v-3.878h-.227c-.493 1.222-1.302 2.22-2.429 2.997-1.118.777-2.496 1.165-4.134 1.165-1.43 0-2.694-.317-3.792-.952-1.089-.644-1.942-1.576-2.557-2.798-.616-1.231-.924-2.718-.924-4.46V74.182h5.143v13.096c0 1.383.378 2.481 1.136 3.296.757.814 1.752 1.222 2.983 1.222.757 0 1.491-.185 2.202-.555.71-.369 1.292-.918 1.747-1.647.464-.739.696-1.662.696-2.77ZM4.869 140v-29.091h5.27v13.367h.355l11.35-13.367h6.434l-11.25 13.054L28.378 140h-6.335l-8.68-12.472-3.224 3.807V140H4.87Zm34.9.426c-2.187 0-4.076-.454-5.667-1.364-1.581-.918-2.798-2.215-3.65-3.892-.853-1.685-1.279-3.669-1.279-5.951 0-2.245.426-4.214 1.279-5.909.861-1.705 2.064-3.031 3.608-3.978 1.543-.956 3.357-1.434 5.44-1.434 1.345 0 2.614.218 3.807.653a8.597 8.597 0 0 1 3.182 1.989c.928.899 1.657 2.045 2.187 3.437.53 1.383.796 3.031.796 4.943v1.577H31.588v-3.466h12.955c-.01-.985-.223-1.861-.64-2.628a4.65 4.65 0 0 0-1.747-1.832c-.738-.445-1.6-.668-2.585-.668-1.051 0-1.974.256-2.77.767a5.287 5.287 0 0 0-1.86 1.989 5.721 5.721 0 0 0-.668 2.685v3.025c0 1.269.232 2.358.696 3.267.464.9 1.112 1.591 1.946 2.074.833.474 1.809.71 2.926.71.748 0 1.425-.104 2.031-.312a4.507 4.507 0 0 0 1.577-.952 3.963 3.963 0 0 0 1.008-1.548l4.801.54a7.485 7.485 0 0 1-1.732 3.324c-.843.937-1.923 1.666-3.24 2.187-1.315.511-2.821.767-4.516.767ZM53.823 140v-21.818h4.914v3.707h.256c.455-1.25 1.208-2.225 2.259-2.926 1.05-.71 2.306-1.065 3.764-1.065 1.477 0 2.722.36 3.736 1.079 1.022.71 1.742 1.681 2.159 2.912h.227c.483-1.212 1.297-2.178 2.443-2.898 1.156-.729 2.524-1.093 4.105-1.093 2.008 0 3.646.634 4.915 1.903 1.27 1.269 1.904 3.12 1.904 5.554V140h-5.157v-13.849c0-1.355-.36-2.344-1.08-2.969-.719-.635-1.6-.952-2.641-.952-1.24 0-2.212.388-2.912 1.165-.692.767-1.037 1.766-1.037 2.997V140h-5.043v-14.062c0-1.127-.34-2.027-1.022-2.699-.673-.673-1.553-1.009-2.642-1.009-.74 0-1.411.19-2.018.568-.606.37-1.089.895-1.448 1.577-.36.672-.54 1.458-.54 2.358V140h-5.142Zm-43.88 40.545V198H7.83v-15.239h-.103l-4.261 2.83v-2.148l4.364-2.898h2.113ZM14.963 198v-1.534l5.761-6.307a40.406 40.406 0 0 0 1.67-1.926c.438-.551.762-1.068.973-1.551.215-.489.323-1 .323-1.534 0-.614-.147-1.145-.443-1.594a2.88 2.88 0 0 0-1.193-1.04 3.874 3.874 0 0 0-1.705-.366c-.67 0-1.255.139-1.755.417a2.88 2.88 0 0 0-1.15 1.151c-.268.494-.401 1.074-.401 1.739H15.03c0-1.023.236-1.921.708-2.694a4.912 4.912 0 0 1 1.926-1.806c.818-.432 1.736-.648 2.753-.648 1.022 0 1.929.216 2.718.648a4.864 4.864 0 0 1 1.858 1.747 4.59 4.59 0 0 1 .674 2.446 5.26 5.26 0 0 1-.35 1.883c-.227.608-.625 1.287-1.193 2.037-.563.744-1.344 1.654-2.344 2.727l-3.92 4.194v.136h8.113V198h-11.01Zm20.224.239c-1.284 0-2.377-.35-3.28-1.049-.904-.704-1.595-1.724-2.072-3.059-.477-1.341-.716-2.961-.716-4.858 0-1.887.239-3.497.716-4.833.483-1.341 1.176-2.363 2.08-3.068.909-.71 2-1.065 3.273-1.065 1.272 0 2.36.355 3.264 1.065.909.705 1.602 1.727 2.08 3.068.482 1.336.724 2.946.724 4.833 0 1.897-.239 3.517-.716 4.858-.477 1.335-1.168 2.355-2.071 3.059-.904.699-1.997 1.049-3.282 1.049Zm0-1.875c1.273 0 2.262-.614 2.966-1.841.705-1.228 1.057-2.978 1.057-5.25 0-1.512-.162-2.799-.486-3.861-.318-1.063-.778-1.872-1.38-2.429-.597-.557-1.316-.835-2.157-.835-1.26 0-2.247.622-2.957 1.866-.71 1.239-1.065 2.992-1.065 5.259 0 1.511.159 2.795.477 3.852.318 1.057.776 1.861 1.372 2.412.602.551 1.327.827 2.173.827Zm10.198 1.772c-.42 0-.781-.15-1.082-.451a1.477 1.477 0 0 1-.452-1.083c0-.42.15-.781.452-1.082a1.477 1.477 0 0 1 1.082-.452c.42 0 .781.151 1.082.452.302.301.452.662.452 1.082 0 .279-.071.534-.213.767a1.593 1.593 0 0 1-.554.563 1.465 1.465 0 0 1-.767.204Zm10.193.103c-1.284 0-2.378-.35-3.281-1.049-.903-.704-1.594-1.724-2.071-3.059-.477-1.341-.716-2.961-.716-4.858 0-1.887.239-3.497.716-4.833.483-1.341 1.176-2.363 2.08-3.068.909-.71 2-1.065 3.272-1.065 1.273 0 2.36.355 3.264 1.065.91.705 1.603 1.727 2.08 3.068.483 1.336.724 2.946.724 4.833 0 1.897-.238 3.517-.716 4.858-.477 1.335-1.167 2.355-2.07 3.059-.904.699-1.998 1.049-3.282 1.049Zm0-1.875c1.273 0 2.261-.614 2.966-1.841.705-1.228 1.057-2.978 1.057-5.25 0-1.512-.162-2.799-.486-3.861-.318-1.063-.778-1.872-1.38-2.429-.597-.557-1.316-.835-2.157-.835-1.261 0-2.247.622-2.957 1.866-.71 1.239-1.066 2.992-1.066 5.259 0 1.511.16 2.795.478 3.852.318 1.057.775 1.861 1.372 2.412.602.551 1.326.827 2.173.827Zm15 1.875c-1.284 0-2.378-.35-3.281-1.049-.903-.704-1.594-1.724-2.071-3.059-.477-1.341-.716-2.961-.716-4.858 0-1.887.239-3.497.716-4.833.483-1.341 1.176-2.363 2.08-3.068.909-.71 2-1.065 3.272-1.065 1.273 0 2.36.355 3.264 1.065.91.705 1.603 1.727 2.08 3.068.483 1.336.724 2.946.724 4.833 0 1.897-.238 3.517-.716 4.858-.477 1.335-1.167 2.355-2.07 3.059-.904.699-1.998 1.049-3.282 1.049Zm0-1.875c1.273 0 2.261-.614 2.966-1.841.705-1.228 1.057-2.978 1.057-5.25 0-1.512-.162-2.799-.486-3.861-.318-1.063-.778-1.872-1.38-2.429-.597-.557-1.316-.835-2.157-.835-1.261 0-2.247.622-2.957 1.866-.71 1.239-1.066 2.992-1.066 5.259 0 1.511.16 2.795.478 3.852.318 1.057.775 1.861 1.372 2.412.602.551 1.326.827 2.173.827Zm15 1.875c-1.284 0-2.378-.35-3.281-1.049-.903-.704-1.594-1.724-2.071-3.059-.477-1.341-.716-2.961-.716-4.858 0-1.887.239-3.497.716-4.833.483-1.341 1.176-2.363 2.08-3.068.909-.71 2-1.065 3.272-1.065 1.273 0 2.36.355 3.264 1.065.91.705 1.603 1.727 2.08 3.068.483 1.336.724 2.946.724 4.833 0 1.897-.238 3.517-.716 4.858-.477 1.335-1.167 2.355-2.07 3.059-.904.699-1.998 1.049-3.282 1.049Zm0-1.875c1.273 0 2.261-.614 2.966-1.841.705-1.228 1.057-2.978 1.057-5.25 0-1.512-.162-2.799-.486-3.861-.318-1.063-.778-1.872-1.38-2.429-.597-.557-1.316-.835-2.157-.835-1.261 0-2.247.622-2.957 1.866-.71 1.239-1.066 2.992-1.066 5.259 0 1.511.16 2.795.478 3.852.318 1.057.775 1.861 1.372 2.412.602.551 1.326.827 2.173.827Zm14.284 1.909c-1.09 0-2.054-.276-2.889-.827-.835-.557-1.489-1.341-1.96-2.352-.472-1.017-.708-2.219-.708-3.605 0-1.375.236-2.569.708-3.58.471-1.011 1.128-1.793 1.968-2.344.841-.551 1.813-.826 2.915-.826.853 0 1.526.142 2.02.426.5.278.881.596 1.142.954.267.353.475.642.622.87h.171v-6.444h2.011V198h-1.943v-2.011h-.239c-.147.238-.358.539-.63.903-.273.358-.662.679-1.168.963-.506.279-1.179.418-2.02.418Zm.273-1.807c.807 0 1.489-.21 2.045-.631.557-.426.981-1.014 1.27-1.764.29-.756.435-1.628.435-2.616 0-.978-.142-1.833-.426-2.566-.284-.738-.705-1.312-1.262-1.721-.556-.415-1.244-.623-2.062-.623-.852 0-1.563.219-2.13.657-.563.432-.986 1.02-1.27 1.764-.279.739-.418 1.568-.418 2.489 0 .931.142 1.778.426 2.539.29.756.716 1.358 1.278 1.807.569.443 1.273.665 2.114.665Zm.102-12.682v-1.568h7.5v1.568h-7.5Z"/>
  <g filter="url(#a)">
    <rect width="622" height="58" x="2" y="231" fill="#000" rx="8" shape-rendering="crispEdges"/>
    <path fill="#fff" d="M218.881 254.344v-1.889h11.257v1.889h-4.539V267h-2.187v-12.656h-4.531Zm15.697 6.179V267h-2.123v-14.545h2.095v5.411h.135a3.137 3.137 0 0 1 1.172-1.399c.525-.345 1.212-.518 2.06-.518.748 0 1.401.154 1.96.462.563.307.999.767 1.307 1.377.312.606.468 1.364.468 2.273V267h-2.123v-6.683c0-.8-.206-1.421-.618-1.861-.412-.445-.985-.668-1.719-.668a2.81 2.81 0 0 0-1.349.32 2.314 2.314 0 0 0-.931.937c-.222.408-.334.9-.334 1.478Zm14.61 6.697c-1.075 0-2.001-.229-2.777-.689a4.67 4.67 0 0 1-1.79-1.953c-.417-.843-.625-1.83-.625-2.962 0-1.117.208-2.102.625-2.954.421-.852 1.009-1.518 1.761-1.996.758-.478 1.643-.717 2.657-.717.615 0 1.212.102 1.789.305a4.333 4.333 0 0 1 1.556.959c.459.436.821 1.001 1.087 1.698.265.691.397 1.531.397 2.521v.753h-8.672v-1.591h6.591c0-.559-.113-1.054-.341-1.485a2.569 2.569 0 0 0-.958-1.029c-.408-.251-.886-.377-1.435-.377-.597 0-1.118.147-1.563.44-.44.289-.781.668-1.022 1.137a3.276 3.276 0 0 0-.355 1.513v1.243c0 .729.127 1.349.383 1.86.261.512.623.902 1.087 1.172.464.265 1.006.398 1.626.398.403 0 .77-.057 1.101-.171a2.272 2.272 0 0 0 1.413-1.384l2.01.362a3.643 3.643 0 0 1-.866 1.555c-.412.44-.931.784-1.556 1.03-.62.241-1.328.362-2.123.362Zm1.229-12.436-1.456-1.903-1.463 1.903h-1.918v-.106l2.493-3.012h1.768l2.5 3.012v.106h-1.924ZM256.224 267v-10.909h2.039v1.775h.135a2.817 2.817 0 0 1 1.115-1.406c.516-.341 1.134-.511 1.853-.511.73 0 1.34.17 1.833.511.497.341.864.81 1.101 1.406h.113a3.078 3.078 0 0 1 1.243-1.392c.568-.35 1.246-.525 2.032-.525.989 0 1.796.31 2.421.93.63.621.945 1.556.945 2.806V267h-2.124v-7.116c0-.739-.201-1.274-.603-1.606-.403-.331-.883-.497-1.442-.497-.691 0-1.229.213-1.612.639-.384.422-.576.964-.576 1.627V267h-2.116v-7.251c0-.592-.185-1.068-.554-1.428-.369-.36-.85-.54-1.442-.54-.402 0-.774.107-1.115.32a2.35 2.35 0 0 0-.817.873c-.203.374-.305.808-.305 1.3V267h-2.124Zm24.411-14.545 4.048 11.846h.164l4.048-11.846h2.372L286.033 267h-2.536l-5.234-14.545h2.372Zm14.663 14.786c-.692 0-1.317-.127-1.875-.383a3.16 3.16 0 0 1-1.329-1.129c-.322-.493-.482-1.096-.482-1.811 0-.616.118-1.123.355-1.52.236-.398.556-.713.958-.945a5.008 5.008 0 0 1 1.35-.525 13.158 13.158 0 0 1 1.52-.27l1.591-.185c.407-.052.703-.135.887-.249.185-.113.277-.298.277-.554v-.049c0-.621-.175-1.101-.525-1.442-.346-.341-.862-.511-1.548-.511-.715 0-1.279.158-1.691.475-.407.313-.689.661-.845 1.045l-1.996-.455c.237-.663.583-1.198 1.037-1.605.46-.412.987-.71 1.584-.895a6.197 6.197 0 0 1 1.882-.284c.436 0 .897.052 1.385.156.493.1.952.284 1.378.554.431.27.784.656 1.058 1.158.275.497.412 1.143.412 1.939V267h-2.074v-1.491h-.085a3.013 3.013 0 0 1-.618.809 3.284 3.284 0 0 1-1.058.661c-.431.175-.947.262-1.548.262Zm.461-1.704c.587 0 1.089-.116 1.506-.348.421-.232.741-.535.959-.909.222-.379.334-.784.334-1.215v-1.406c-.076.076-.223.147-.441.213a6.909 6.909 0 0 1-.731.164l-.803.12-.653.085c-.412.053-.789.14-1.13.263a1.933 1.933 0 0 0-.809.533c-.199.227-.299.53-.299.909 0 .526.195.923.583 1.193.388.265.883.398 1.484.398Zm-.028-10.902-2.195-3.274h2.237l1.655 3.274h-1.697Zm12.374 12.585c-1.023 0-1.915-.234-2.678-.703-.762-.469-1.354-1.124-1.775-1.967-.422-.843-.632-1.828-.632-2.955 0-1.131.21-2.121.632-2.969.421-.847 1.013-1.505 1.775-1.974.763-.469 1.655-.703 2.678-.703 1.022 0 1.915.234 2.677.703.763.469 1.354 1.127 1.776 1.974.421.848.632 1.838.632 2.969 0 1.127-.211 2.112-.632 2.955-.422.843-1.013 1.498-1.776 1.967-.762.469-1.655.703-2.677.703Zm.007-1.782c.663 0 1.212-.176 1.648-.526.435-.35.757-.817.965-1.399.214-.583.32-1.224.32-1.925 0-.696-.106-1.335-.32-1.918-.208-.587-.53-1.058-.965-1.413-.436-.355-.985-.533-1.648-.533-.668 0-1.222.178-1.662.533-.436.355-.76.826-.973 1.413a5.67 5.67 0 0 0-.313 1.918c0 .701.105 1.342.313 1.925.213.582.537 1.049.973 1.399.44.35.994.526 1.662.526Zm22.756-8.388a4.464 4.464 0 0 0-.554-1.158 3.564 3.564 0 0 0-.817-.881 3.44 3.44 0 0 0-1.087-.561 4.362 4.362 0 0 0-1.328-.191c-.819 0-1.558.21-2.216.632-.658.421-1.179 1.039-1.562 1.853-.379.81-.569 1.802-.569 2.976 0 1.179.192 2.176.576 2.99.383.815.909 1.433 1.576 1.854.668.421 1.428.632 2.28.632.791 0 1.48-.161 2.067-.483a3.36 3.36 0 0 0 1.371-1.364c.326-.591.49-1.287.49-2.088l.568.107h-4.162v-1.811h5.717v1.655c0 1.221-.26 2.282-.781 3.181a5.313 5.313 0 0 1-2.145 2.074c-.909.488-1.95.732-3.125.732-1.316 0-2.471-.303-3.466-.909-.989-.606-1.761-1.466-2.315-2.578-.554-1.118-.831-2.444-.831-3.978 0-1.16.161-2.201.483-3.125.322-.923.774-1.707 1.357-2.35a5.924 5.924 0 0 1 2.066-1.485 6.485 6.485 0 0 1 2.607-.518c.786 0 1.517.116 2.194.348a5.93 5.93 0 0 1 1.819.987 5.6 5.6 0 0 1 2.038 3.459h-2.251Zm5.649 9.95v-10.909h2.124V267h-2.124Zm1.073-12.592c-.369 0-.687-.123-.952-.37a1.201 1.201 0 0 1-.39-.895c0-.35.13-.648.39-.894.265-.251.583-.377.952-.377s.684.126.944.377c.266.246.398.544.398.894 0 .346-.132.644-.398.895a1.32 1.32 0 0 1-.944.37Zm8.503 12.812c-1.023 0-1.915-.234-2.678-.703-.762-.469-1.354-1.124-1.775-1.967-.421-.843-.632-1.828-.632-2.955 0-1.131.211-2.121.632-2.969.421-.847 1.013-1.505 1.775-1.974.763-.469 1.655-.703 2.678-.703s1.915.234 2.678.703c.762.469 1.354 1.127 1.775 1.974.422.848.632 1.838.632 2.969 0 1.127-.21 2.112-.632 2.955-.421.843-1.013 1.498-1.775 1.967-.763.469-1.655.703-2.678.703Zm.007-1.782c.663 0 1.212-.176 1.648-.526.435-.35.757-.817.966-1.399a5.57 5.57 0 0 0 .319-1.925 5.55 5.55 0 0 0-.319-1.918c-.209-.587-.531-1.058-.966-1.413-.436-.355-.985-.533-1.648-.533-.667 0-1.221.178-1.662.533-.435.355-.76.826-.973 1.413a5.67 5.67 0 0 0-.312 1.918c0 .701.104 1.342.312 1.925.213.582.538 1.049.973 1.399.441.35.995.526 1.662.526Zm.86-10.853h-1.677l-.056-1.449c.501-.023.857-.09 1.065-.198.208-.114.31-.277.305-.491.005-.255-.139-.438-.433-.546-.289-.109-.642-.164-1.058-.164l.064-1.172c1.075 0 1.889.171 2.443.512.559.341.836.8.831 1.378.005.468-.149.814-.462 1.036a2.347 2.347 0 0 1-1.022.412v.682ZM359.012 267v-14.545h2.195v6.321h7.251v-6.321h2.202V267h-2.202v-6.342h-7.251V267h-2.195Zm17.848.241c-.691 0-1.316-.127-1.875-.383a3.158 3.158 0 0 1-1.328-1.129c-.322-.493-.483-1.096-.483-1.811 0-.616.118-1.123.355-1.52.237-.398.556-.713.959-.945a4.988 4.988 0 0 1 1.349-.525 13.196 13.196 0 0 1 1.52-.27l1.591-.185c.407-.052.703-.135.888-.249.185-.113.277-.298.277-.554v-.049c0-.621-.175-1.101-.526-1.442-.345-.341-.861-.511-1.548-.511-.715 0-1.278.158-1.69.475-.407.313-.689.661-.845 1.045l-1.996-.455c.237-.663.582-1.198 1.037-1.605.459-.412.987-.71 1.584-.895a6.192 6.192 0 0 1 1.882-.284c.435 0 .897.052 1.385.156.492.1.951.284 1.377.554.431.27.784.656 1.059 1.158.274.497.412 1.143.412 1.939V267h-2.074v-1.491h-.085a3.055 3.055 0 0 1-.618.809 3.29 3.29 0 0 1-1.059.661c-.43.175-.947.262-1.548.262Zm.462-1.704c.587 0 1.089-.116 1.505-.348.422-.232.741-.535.959-.909.223-.379.334-.784.334-1.215v-1.406c-.076.076-.223.147-.44.213a6.874 6.874 0 0 1-.732.164l-.802.12-.654.085c-.412.053-.788.14-1.129.263a1.943 1.943 0 0 0-.81.533c-.199.227-.298.53-.298.909 0 .526.194.923.582 1.193.389.265.883.398 1.485.398Zm-.029-10.902-2.194-3.274h2.237l1.655 3.274h-1.698Zm9.903 5.888V267h-2.124v-10.909h2.038v1.775h.135a3.126 3.126 0 0 1 1.179-1.392c.54-.35 1.22-.525 2.039-.525.743 0 1.394.156 1.953.469.559.307.992.767 1.3 1.377.307.611.461 1.366.461 2.266V267h-2.123v-6.683c0-.791-.206-1.409-.618-1.854-.412-.45-.978-.675-1.698-.675-.492 0-.93.107-1.314.32a2.31 2.31 0 0 0-.902.937c-.217.408-.326.9-.326 1.478Zm14.403 10.795c-.866 0-1.612-.113-2.237-.341-.62-.227-1.127-.528-1.52-.902a3.784 3.784 0 0 1-.881-1.228l1.826-.753c.127.208.298.428.511.66.218.237.511.438.881.604.374.166.854.249 1.441.249.805 0 1.471-.197 1.996-.59.526-.388.788-1.008.788-1.861v-2.145h-.134c-.128.232-.313.49-.554.775-.237.284-.564.53-.981.738-.416.208-.958.313-1.626.313-.862 0-1.638-.202-2.33-.604-.686-.407-1.231-1.006-1.633-1.797-.398-.795-.597-1.773-.597-2.933s.197-2.155.59-2.983c.398-.829.942-1.463 1.633-1.904.692-.445 1.475-.667 2.351-.667.677 0 1.224.113 1.641.341.417.222.741.483.973.781.237.298.419.561.547.788h.156v-1.768h2.081v11.15c0 .938-.218 1.707-.653 2.309-.436.601-1.026 1.046-1.769 1.335-.739.289-1.572.433-2.5.433Zm-.021-6.243c.611 0 1.127-.142 1.548-.426.426-.289.748-.701.966-1.236.223-.539.334-1.186.334-1.939 0-.733-.109-1.38-.327-1.938-.218-.559-.537-.995-.959-1.307-.421-.318-.942-.476-1.562-.476-.639 0-1.172.166-1.598.497-.426.327-.748.772-.966 1.335-.213.564-.32 1.193-.32 1.889 0 .715.109 1.343.327 1.883.218.539.54.961.966 1.264.431.303.961.454 1.591.454Z"/>
  </g>
  <path fill="#828282" d="M3.278 319.364H5.41l3.705 9.045h.136l3.704-9.045h2.131V331h-1.67v-8.42h-.108l-3.432 8.403H8.489l-3.432-8.409h-.108V331h-1.67v-11.636ZM18.621 331h-1.864l4.188-11.636h2.028L27.161 331h-1.864l-3.29-9.523h-.09L18.62 331Zm.312-4.557h6.046v1.477h-6.046v-1.477Zm1.318-8.233-1.147-.04c0-.625.17-1.125.511-1.5a1.65 1.65 0 0 1 1.256-.568c.235 0 .44.04.613.12.175.075.337.164.489.267.152.102.305.193.46.272.155.076.328.114.517.114a.674.674 0 0 0 .529-.25.93.93 0 0 0 .21-.619l1.125.074c-.004.632-.176 1.13-.517 1.494-.337.36-.754.54-1.25.54-.27 0-.492-.038-.67-.114a2.71 2.71 0 0 1-.472-.267 3.182 3.182 0 0 0-.42-.267 1.049 1.049 0 0 0-.518-.119.645.645 0 0 0-.517.244.948.948 0 0 0-.199.619Zm22.216 1.154V331h-1.613l-5.915-8.534h-.108V331h-1.756v-11.636H34.7l5.92 8.545h.109v-8.545h1.738Zm6.857-.546-3.75 13.932h-1.517l3.75-13.932h1.517ZM51.886 331h-1.863l4.187-11.636h2.029L60.426 331h-1.864l-3.29-9.523h-.09L51.886 331Zm.313-4.557h6.045v1.477H52.2v-1.477Z"/>
  <defs>
    <filter id="a" width="626" height="62" x="0" y="230" color-interpolation-filters="sRGB" filterUnits="userSpaceOnUse">
      <feFlood flood-opacity="0" result="BackgroundImageFix"/>
      <feColorMatrix in="SourceAlpha" result="hardAlpha" values="0 0 0 0 0 0 0 0 0 0 0 0 0 0 0 0 0 0 127 0"/>
      <feOffset dy="1"/>
      <feGaussianBlur stdDeviation="1"/>
      <feComposite in2="hardAlpha" operator="out"/>
      <feColorMatrix values="0 0 0 0 0 0 0 0 0 0 0 0 0 0 0 0 0 0 0.05 0"/>
      <feBlend in2="BackgroundImageFix" result="effect1_dropShadow_2116_136"/>
      <feBlend in="SourceGraphic" in2="effect1_dropShadow_2116_136" result="shape"/>
    </filter>
  </defs>
</svg>
